<?xml version="1.0" encoding="UTF-8" standalone="no"?>
<svg
   width="24"
   height="24"
   fill="none"
   viewBox="0 0 24 24"
   version="1.1"
   id="svg1"
   sodipodi:docname="Close.svg"
   inkscape:version="1.3.2 (091e20e, 2023-11-25, custom)"
   xmlns:inkscape="http://www.inkscape.org/namespaces/inkscape"
   xmlns:sodipodi="http://sodipodi.sourceforge.net/DTD/sodipodi-0.dtd"
   xmlns="http://www.w3.org/2000/svg"
   xmlns:svg="http://www.w3.org/2000/svg">
  <defs
     id="defs1" />
  <sodipodi:namedview
     id="namedview1"
     pagecolor="#ffffff"
     bordercolor="#000000"
     borderopacity="0.25"
     inkscape:showpageshadow="2"
     inkscape:pageopacity="0.0"
     inkscape:pagecheckerboard="0"
     inkscape:deskcolor="#d1d1d1"
     inkscape:zoom="47.375"
     inkscape:cx="12"
     inkscape:cy="12"
     inkscape:window-width="2560"
     inkscape:window-height="1351"
     inkscape:window-x="-9"
     inkscape:window-y="-9"
     inkscape:window-maximized="1"
     inkscape:current-layer="svg1" />
  <path
     d="m 20.052,3.003 0.121,0.014 0.088,0.02 0.104,0.034 0.09,0.04 0.063,0.036 0.063,0.042 0.064,0.05 0.063,0.058 0.094,0.11 0.072,0.11 0.053,0.114 0.035,0.105 0.016,0.065 0.01,0.053 0.01,0.148 c 7.14e-4,0.5294569 -0.426162,0.8158394 -2,2.414 L 6.413,19 C 4.9357499,20.559832 4.5950995,20.995979 3.94,21 L 3.844,20.99 3.767,20.975 3.69,20.953 3.62,20.927 3.53,20.885 3.441,20.832 3.35,20.762 3.382,20.789 C 3.3203779,20.740335 3.2646653,20.684622 3.216,20.623 L 3.165,20.553 3.125,20.489 3.093,20.425 3.059,20.343 3.034,20.263 3.01,20.152 3.003,20.091 2.999,20.001 c 0.00369,-0.486847 0.4154527,-0.793932 2,-2.415 L 17.583,5.002 c 1.59862,-1.5620152 1.905311,-1.9942482 2.469,-1.999 z"
     fill="#000000"
     id="path1"
     sodipodi:nodetypes="ccccccccccccccccccccccccccccccccccccccc"
     style="fill:#ffffff;fill-opacity:1" />
  <path
     d="m 20.998,20.052 -0.014,0.121 -0.02,0.088 -0.034,0.104 -0.04,0.09 -0.036,0.063 -0.042,0.063 -0.05,0.064 -0.058,0.063 -0.11,0.094 -0.11,0.072 -0.114,0.053 -0.105,0.035 -0.065,0.016 -0.053,0.01 -0.148,0.01 c -0.529456,7.14e-4 -0.815839,-0.426162 -2.414,-2 L 5.0010004,6.4129996 c -1.559832,-1.4772501 -1.995979,-1.8179005 -2,-2.473 l 0.01,-0.096 0.015,-0.077 0.022,-0.077 0.026,-0.07 0.042,-0.09 0.053,-0.089 0.07,-0.091 -0.027,0.032 c 0.048665,-0.061622 0.104378,-0.1173347 0.166,-0.166 l 0.07,-0.051 0.064,-0.04 0.064,-0.032 0.082,-0.034 0.08,-0.025 0.111,-0.024 0.061,-0.007 0.09,-0.004 c 0.486847,0.00369 0.793932,0.4154527 2.415,2 L 18.999,17.583 c 1.562016,1.59862 1.994249,1.905311 1.999,2.469 z"
     fill="#000000"
     id="path1-4"
     sodipodi:nodetypes="ccccccccccccccccccccccccccccccccccccccc"
     style="fill:#ffffff;fill-opacity:1" />
</svg>
