<?xml version="1.0" encoding="UTF-8" standalone="no"?>
<!-- Created with Inkscape (http://www.inkscape.org/) -->

<svg
   version="1.1"
   id="svg1"
   width="1024"
   height="1024"
   viewBox="0 0 1024 1024"
   sodipodi:docname="_20c35761-0679-4362-9b3d-01a40d55b57a.jpg"
   inkscape:export-filename="..\Documents\GitHub\OptiHeat\src\ProfHeat.AUI\Assets\Images\GasMotor.svg"
   inkscape:export-xdpi="96"
   inkscape:export-ydpi="96"
   xmlns:inkscape="http://www.inkscape.org/namespaces/inkscape"
   xmlns:sodipodi="http://sodipodi.sourceforge.net/DTD/sodipodi-0.dtd"
   xmlns="http://www.w3.org/2000/svg"
   xmlns:svg="http://www.w3.org/2000/svg">
  <defs
     id="defs1">
    <inkscape:path-effect
       effect="spiro"
       id="path-effect4"
       is_visible="true"
       lpeversion="1" />
  </defs>
  <sodipodi:namedview
     id="namedview1"
     pagecolor="#ffffff"
     bordercolor="#000000"
     borderopacity="0.25"
     inkscape:showpageshadow="2"
     inkscape:pageopacity="0.0"
     inkscape:pagecheckerboard="0"
     inkscape:deskcolor="#d1d1d1" />
  <g
     inkscape:groupmode="layer"
     inkscape:label="Image"
     id="g1">
    <path
       style="fill:#7496ff;fill-opacity:1;stroke-width:37.7953;paint-order:fill markers stroke"
       d="m 498.2057,362.95872 c -7.38115,7.884 -14.66559,15.85854 -21.85113,23.92123 -10.19582,11.44044 -20.21269,23.08417 -28.9815,35.65184 -7.10112,10.17749 -13.43765,21.11118 -16.56085,33.12171 -3.12875,12.03189 -2.9126,24.72546 -1.15006,37.03191 1.44339,10.0781 3.91847,20.03798 7.8204,29.44152 4.03552,9.72547 9.55148,18.76222 14.03073,28.29146 3.55321,7.55918 6.48356,15.579 6.90035,23.92123 0.40694,8.145 -1.62291,16.29587 -5.06026,23.69122 -2.33646,5.02684 -5.31068,9.73419 -8.51044,14.26074 -0.34101,0.48242 -0.68469,0.96296 -1.03099,1.44159 -0.38577,-0.25147 -0.6892,-0.62714 -0.85388,-1.05718 -0.23656,-0.61774 -0.1749,-1.34218 0.16264,-1.91106 l -0.73189,-3.33418 -3.61881,-6.18043 -5.4892,-7.84752 -6.66836,-7.64422 c -2.39438,-2.59675 -4.75299,-5.22648 -7.07496,-7.88818 -2.31368,-2.6522 -4.59097,-5.33615 -6.83101,-8.05083 -3.2739,-4.02194 -6.24007,-8.29431 -8.86404,-12.76747 -3.44083,-5.86568 -6.29003,-12.07121 -8.62008,-18.45998 -1.92585,-5.28052 -3.50052,-10.69551 -4.554,-16.21665 -2.55877,-13.41018 -2.00291,-27.28312 0.35181,-40.73063 0.84676,-4.83572 1.92383,-9.6311 3.22634,-14.36446 l -0.0134,-0.11191 -0.0647,0.0144 -0.0791,0.0791 c -0.0604,0.23871 -0.15949,0.46757 -0.29236,0.67487 -0.28643,0.44687 -0.71616,0.7784 -1.12131,1.12131 -0.68545,0.58014 -1.32262,1.21731 -1.90276,1.90276 -1.87547,1.58822 -3.66903,3.27316 -5.37117,5.04588 -6.21595,6.4737 -11.15316,14.04969 -15.87701,21.68069 -6.9023,11.15012 -13.46259,22.58381 -18.21601,34.80559 -4.74848,12.20908 -7.64128,25.08161 -9.43329,38.05845 -1.8888,13.67777 -2.56896,27.56207 -1.30115,41.31131 2.00898,21.78708 8.90854,42.97285 18.86659,62.45489 12.69156,24.82991 30.47498,47.1392 52.37102,64.40661 26.97737,21.27458 60.10668,34.65345 94.29225,38.07878 0.0269,0.0439 0.0756,0.0738 0.12696,0.0777 0.0514,0.004 0.10406,-0.0181 0.13734,-0.0574 0.0347,-0.0409 0.0472,-0.0973 0.0436,-0.15083 -0.004,-0.0535 -0.0221,-0.10494 -0.0436,-0.15412 -0.0975,-0.22352 -0.26242,-0.41711 -0.4676,-0.54892 L 504.62,775.46128 c -0.6265,-0.28684 -1.28127,-0.51191 -1.95172,-0.6709 -0.82675,-0.19605 -1.6739,-0.29122 -2.50756,-0.45541 -1.45313,-0.2862 -2.85585,-0.78001 -4.25522,-1.26507 -4.18182,-1.44952 -8.40957,-2.8454 -12.30564,-4.94525 -3.46978,-1.87009 -6.62447,-4.27156 -9.6605,-6.78535 -3.99291,-3.30608 -7.81056,-6.82653 -11.38558,-10.58055 -4.92743,-5.17415 -9.39816,-10.80107 -13.11068,-16.90587 -2.26454,-3.72377 -4.24324,-7.61845 -5.98031,-11.6156 -3.11031,-7.15709 -5.45502,-14.6849 -6.44033,-22.42616 -0.75165,-5.90551 -0.70806,-11.89199 -0.23001,-17.82592 1.13409,-14.07721 4.71568,-27.92255 10.18789,-40.94211 2.8848,-6.86357 6.2983,-13.51488 10.37155,-19.747 2.13114,-3.26068 4.4391,-6.40153 6.66836,-9.59593 3.19102,-4.57255 6.23174,-9.27406 8.62008,-14.31258 1.30288,-2.7486 2.40688,-5.58777 3.4155,-8.45743 1.52941,-4.35135 2.84106,-8.77547 4.22872,-13.17408 0.006,-0.0204 0.0129,-0.0409 0.0203,-0.061 0.045,-0.12225 0.12558,-0.23116 0.22936,-0.30989 0.10378,-0.0787 0.23037,-0.12701 0.36022,-0.13738 0.26561,-0.0285 0.54115,0.0497 0.75222,0.21347 0.24547,0.19041 0.39378,0.47993 0.4981,0.77255 0.21247,0.59597 0.27249,1.24559 0.1728,1.8704 l 0.7319,4.23888 c 0.16724,1.84288 0.32988,3.68617 0.48793,5.52986 0.28062,3.27353 0.54699,6.55488 0.48792,9.83989 -0.0515,2.86493 -0.35118,5.72536 -0.89453,8.53876 -0.70658,4.08406 -1.62995,8.1306 -2.76493,12.1169 -1.28533,4.51436 -2.84211,8.95141 -4.65914,13.27922 l -3.14744,10.14289 c -1.17525,2.75867 -2.00785,5.66311 -2.47262,8.62545 -0.39712,2.53113 -0.52585,5.0954 -0.74754,7.64789 -0.1978,2.27745 -0.47025,4.56026 -0.34502,6.84285 0.1054,1.92114 0.49424,3.82649 1.15006,5.63529 l 3.9677,9.02797 c 2.04273,2.80845 4.56215,5.26928 7.41789,7.24537 1.59722,1.10524 3.29877,2.05964 5.07463,2.8464 0.0281,0.007 0.0582,0.007 0.0863,0 0.0275,-0.007 0.0531,-0.0215 0.0737,-0.0412 0.0206,-0.0196 0.0361,-0.0445 0.0447,-0.0716 0.009,-0.0271 0.0102,-0.0564 0.005,-0.0843 -0.006,-0.0279 -0.0183,-0.0543 -0.0367,-0.076 -0.0525,-0.26833 -0.12464,-0.53282 -0.21563,-0.79066 -0.22821,-0.64672 -0.57606,-1.251 -1.02068,-1.77315 l -3.46697,-7.87188 -0.56925,-9.09363 c -0.0722,-1.1796 -0.0925,-2.36236 -0.0609,-3.54374 0.16557,-6.19063 1.75506,-12.26836 3.88145,-18.08469 1.94738,-5.32668 4.34672,-10.47454 6.55534,-15.69831 1.77998,-4.20996 3.43694,-8.47143 5.00276,-12.76565 1.00876,-2.7665 1.97987,-5.54709 2.87799,-8.35147 1.58045,-4.93495 2.93534,-9.94688 3.90343,-15.03749 1.47383,-7.75002 2.04473,-15.64713 2.24654,-23.53346 0.2336,-9.12884 -0.024,-18.27023 -0.77135,-27.37142 -1.82599,-7.63268 -3.06798,-15.40499 -3.71153,-23.22662 -1.02765,-12.48987 -0.52911,-25.04962 0,-37.57052 0.19762,-4.67648 0.40063,-9.36518 1.1385,-13.9873 1.3703,-8.58373 4.56457,-16.78709 8.45743,-24.55908 0.46423,-0.92682 0.93864,-1.84854 1.42313,-2.76493 0.0211,-0.0271 0.0494,-0.0483 0.0813,-0.061 0.0558,-0.0222 0.12183,-0.0164 0.17293,0.015 0.0511,0.0315 0.086,0.0878 0.0914,0.1476 l 0.26429,0.42694 c 0.004,0.14302 0.0174,0.28577 0.0407,0.42693 0.0238,0.14446 0.0578,0.28724 0.10165,0.42694 l 0.7319,3.02923 c 0.20593,1.79277 0.38216,3.58895 0.52859,5.38755 0.26724,3.28251 0.43551,6.57586 0.8742,9.83989 0.70935,5.27785 2.12775,10.45995 4.20512,15.36336 2.10539,5.21934 4.4866,10.32742 7.13036,15.29579 4.54171,8.53515 9.85958,16.65709 15.86655,24.23285 l 13.01144,15.77636 c 7.96476,8.75009 15.47345,17.9153 22.48539,27.446 5.51792,7.5 10.72832,15.22624 15.61372,23.1528 l 15.94218,30.78075 c 3.6439,7.97192 6.60988,16.25357 8.85546,24.72628 1.18643,4.47648 2.17186,9.00495 3.0143,13.55872 1.41157,7.63019 2.42294,15.34318 2.76494,23.0953 0.25142,5.6991 0.13951,11.42785 -0.65058,17.07751 -1.06045,7.58294 -3.33137,14.94946 -6.01779,22.11944 -2.82193,7.53163 -6.13202,14.92501 -10.57179,21.63151 -3.17346,4.79368 -6.90228,9.2025 -10.89707,13.33673 -5.7166,5.91615 -12.01915,11.30801 -19.02923,15.61372 -7.60754,4.67268 -16.01803,8.03425 -24.75048,9.89247 -0.20921,0.0356 -0.41714,0.0786 -0.62325,0.12914 -0.0234,0.006 -0.0468,0.0116 -0.0702,0.0175 l -0.0195,0.0234 c 7.4e-4,0.005 0.002,0.0106 0.004,0.0156 0.008,0.0206 0.0258,0.037 0.0469,0.043 0.0111,0.009 0.0229,0.0165 0.0352,0.0234 0.0234,0.0132 0.0486,0.0232 0.0742,0.0312 0.0281,0.009 0.0568,0.0153 0.0859,0.0195 l 0.12366,0.0195 c 1.10346,0.065 2.21074,0.065 3.3142,0 2.52972,-0.14899 5.039,-0.64117 7.43756,-1.45885 10.8729,-1.79325 21.56216,-4.69804 31.84724,-8.65443 1.85415,-0.71324 3.69505,-1.46048 5.53125,-2.21875 3.48554,-1.43937 6.95459,-2.91867 10.40625,-4.4375 l 27.9375,-15.40625 c 5.64627,-4.30924 11.11106,-8.85627 16.375,-13.625 4.88616,-4.42649 9.59929,-9.04398 14.125,-13.83839 l 3.60944,-4.02298 7.46881,-9.63433 c 2.91102,-3.62164 5.62683,-7.40016 8.13173,-11.3137 8.08888,-12.6377 13.92913,-26.60973 18.42897,-40.92381 3.85166,-12.2522 6.75523,-24.85089 7.77817,-37.65344 0.70536,-8.82794 0.51254,-17.7274 -0.57452,-26.5165 -0.91642,-9.15022 -2.60371,-18.22312 -5.03814,-27.09103 -4.68892,-17.08035 -12.17058,-33.39976 -22.14128,-48.03907 -5.96478,-8.75768 -12.85497,-16.95462 -21.03642,-23.68807 -3.81988,-3.14382 -7.92535,-5.96811 -12.37437,-8.13173 -2.94181,-1.43064 -6.0261,-2.56808 -9.19239,-3.39001 -0.009,-0.038 -0.0292,-0.0733 -0.0566,-0.10126 -0.0274,-0.028 -0.0623,-0.0484 -0.10008,-0.0586 -0.0378,-0.0102 -0.0783,-0.0101 -0.11599,2.1e-4 -0.0377,0.0103 -0.0726,0.0309 -0.0999,0.059 -0.0401,0.0412 -0.0631,0.0987 -0.0625,0.15625 0.0447,0.0138 0.0871,0.035 0.125,0.0625 0.0711,0.0517 0.12544,0.12597 0.15323,0.20934 0.0278,0.0834 0.0289,0.17542 0.003,0.25941 0.0102,0.0417 0.0206,0.0834 0.0312,0.125 0.53183,2.09013 1.53206,4.02578 2.50898,5.94857 3.31079,6.51636 6.44922,13.13195 9.01562,19.97577 3.59232,9.57966 6.04748,19.57293 7.51301,29.69848 0.9865,6.81586 1.52705,13.72341 1.06066,20.59448 -0.43134,6.35469 -1.72197,12.63267 -3.53554,18.73833 -2.57638,8.6738 -6.22016,17.04128 -10.96015,24.74874 -2.5707,4.18009 -5.45753,8.15891 -8.48529,12.02082 -2.42463,3.09262 -4.97478,6.14502 -8.13172,8.48528 -1.89656,1.40593 -4.00844,2.55258 -5.65686,4.24264 -0.19417,0.19907 -0.38409,0.40746 -0.61941,0.55561 -0.11767,0.0741 -0.24629,0.13234 -0.38218,0.16178 -0.13589,0.0294 -0.27934,0.0293 -0.41262,-0.0103 -0.22944,-0.0682 -0.41509,-0.25202 -0.51325,-0.47033 -0.0982,-0.21831 -0.1144,-0.46756 -0.0759,-0.7038 0.0771,-0.47248 0.35748,-0.88179 0.5891,-1.30075 0.61753,-1.117 0.91454,-2.37839 1.19324,-3.62392 0.74449,-3.32716 1.40766,-6.67252 1.98874,-10.03208 0.14826,-2.90373 0.32505,-5.806 0.53033,-8.70625 0.272,-3.84287 0.59427,-7.69055 0.49819,-11.54184 -0.15971,-6.40201 -1.48374,-12.7604 -3.75,-18.75 -2.47715,-6.54698 -6.06411,-12.63951 -10.25,-18.25 -6.31885,-8.46935 -13.9708,-15.8359 -21.5,-23.25 -9.18067,-9.04032 -18.31343,-18.31315 -25.125,-29.25 -6.48809,-10.41746 -10.7518,-22.27883 -11.875,-34.5 -1.17685,-12.80494 1.07385,-25.69705 4.375,-38.125 2.34559,-8.8305 5.22541,-17.51929 8.625,-26 3.06436,-7.64443 6.55605,-15.13523 9,-23 3.80273,-12.2374 4.99425,-25.207 4.25,-38 -0.6588,-11.32427 -2.85077,-22.65313 -7.5,-33 -4.11276,-9.15295 -10.05465,-17.35641 -16.25,-25.25 -5.07147,-6.46163 -10.35496,-12.77978 -16.25,-18.5 -8.7558,-8.49613 -18.91664,-15.67052 -30.25,-20.1875 -4.49795,-1.79269 -9.20645,-3.18375 -13.3125,-5.75 -0.17237,-0.10773 -0.34688,-0.21896 -0.54305,-0.27222 -0.0981,-0.0266 -0.20099,-0.0382 -0.3019,-0.0261 -0.10092,0.0121 -0.19984,0.0484 -0.28005,0.11083 -0.0992,0.0772 -0.16617,0.19191 -0.19556,0.31413 -0.0294,0.12222 -0.0227,0.25149 0.008,0.37337 0.0445,0.17617 0.13789,0.33695 0.2503,0.47971 0.11241,0.14276 0.24397,0.26909 0.3747,0.39529 0.76315,0.7367 1.51386,1.48631 2.25,2.25 1.68969,1.75294 3.30182,3.57928 4.875,5.4375 2.60742,3.07985 5.10937,6.249 7.5,9.5 4.58536,6.46272 8.45021,13.43625 11.5,20.75 1.6886,4.04945 3.12799,8.20279 4.30734,12.42872 l 1.32582,12.86051 -3.84489,23.02516 -7.99915,17.05895 c -3.64478,7.06919 -8.56464,13.47855 -14.45149,18.82672 -2.13301,1.93783 -4.39161,3.7374 -6.75693,5.38366 z"
       id="path4"
       transform="translate(-15.289322,-24.686292)"
       inkscape:original-d="m 498.2057,362.95872 c -2.25232,1.79455 -14.56742,15.94749 -21.85113,23.92123 -7.28371,7.97375 -19.321,23.7679 -28.9815,35.65184 -9.66049,11.88395 -11.19391,22.08114 -16.56085,33.12171 -5.36694,11.04057 -0.53669,24.68794 -1.15006,37.03191 -0.61336,12.34397 5.13693,19.78102 7.8204,29.44152 2.68348,9.6605 9.27715,18.7843 14.03073,28.29146 4.75358,9.50716 4.67691,15.94749 6.90035,23.92123 2.22345,7.97375 -3.52685,15.79415 -5.06026,23.69122 -1.53341,7.89708 -5.52028,9.43049 -8.51044,14.26074 -2.99015,4.83025 -1.37466,1.89501 -1.03099,1.44159 -0.34367,0.3721 -0.56926,-0.7319 -0.85388,-1.05718 -0.28463,-0.32529 0.21686,-2.53452 0.16264,-1.91106 0.0542,-0.5828 -0.97585,-4.44557 -0.73189,-3.33418 -0.24396,-1.07073 -4.85218,-8.25413 -3.61881,-6.18043 -1.31469,-2.0737 -7.29182,-10.49047 -5.4892,-7.84752 -1.80262,-2.72427 -8.89114,-10.13808 -6.66836,-7.64422 -2.22278,-2.41254 -4.71664,-5.2859 -7.07496,-7.88818 -2.35833,-2.60229 -9.10801,-10.76155 -6.83101,-8.05083 -2.277,-2.6294 -5.90936,-8.48454 -8.86404,-12.76747 -2.95468,-4.28293 -5.74672,-12.30665 -8.62008,-18.45998 -2.87335,-6.15332 -3.036,-10.84944 -4.554,-16.21665 -1.518,-5.36722 0.23454,-27.11542 0.35181,-40.73063 0.11727,-13.61521 4.30178,-19.15501 3.22634,-14.36446 1.07544,-4.79774 -0.013,-0.15161 -0.0134,-0.11191 0.0147,-0.0541 -0.0887,0.0192 -0.0647,0.0144 -0.0168,-0.01 -0.10782,0.10781 -0.0791,0.0791 -0.0288,0.0216 -0.0935,0.54549 -0.29236,0.67487 -0.19887,0.12938 -0.84895,0.64957 -1.12131,1.12131 -0.27236,0.47174 -2.52743,2.52743 -1.90276,1.90276 -0.59592,0.59591 -3.67962,3.35434 -5.37117,5.04588 -1.69155,1.69155 -10.58467,14.67065 -15.87701,21.68069 -5.29234,7.01004 -12.25244,23.20373 -18.21601,34.80559 -5.96358,11.60187 -6.07201,25.3723 -9.43329,38.05845 -3.36129,12.68615 -0.86743,27.32402 -1.30115,41.31131 -0.43371,13.98729 12.57772,41.41974 18.86659,62.45489 6.28886,21.03516 34.91401,43.1546 52.37102,64.40661 17.45701,21.25201 125.73656,50.76493 94.29225,38.07878 31.48497,12.66582 0.18975,0.007 0.2643,0.0203 0.0745,0.0136 0,-0.2033 0,-0.30495 0,-0.10165 -0.61669,-0.71834 -0.4676,-0.54892 -0.12876,-0.12876 -1.70775,-0.69124 -1.28081,-0.50826 -0.40661,-0.18298 -1.29437,-0.44727 -1.95172,-0.6709 -0.65735,-0.22364 -1.59504,-0.38028 -2.50756,-0.45541 -0.91253,-0.0751 -2.83682,-0.76671 -4.25522,-1.26507 -1.41841,-0.49836 -8.3571,-3.29683 -12.30564,-4.94525 -3.94853,-1.64842 -6.36366,-4.52357 -9.6605,-6.78535 -3.29683,-2.26179 -7.51372,-7.0537 -11.38558,-10.58055 -3.87187,-3.52685 -8.85546,-11.27058 -13.11068,-16.90587 -4.25522,-5.63529 -3.94854,-7.74373 -5.98031,-11.6156 -2.03177,-3.87187 -4.29355,-14.95077 -6.44033,-22.42616 -2.14678,-7.47538 -0.15334,-11.88394 -0.23001,-17.82592 -0.0767,-5.94197 6.73771,-27.29474 10.18789,-40.94211 3.45018,-13.64737 6.86015,-13.16466 10.37155,-19.747 3.5114,-6.58233 4.554,-6.39729 6.66836,-9.59593 2.11436,-3.19865 5.74672,-9.59594 8.62008,-14.31258 2.87336,-4.71665 2.22278,-5.58408 3.4155,-8.45743 1.19271,-2.87336 2.87336,-8.78272 4.22872,-13.17408 1.35535,-4.39136 0.0136,-0.0407 0.0203,-0.061 0.007,-0.0203 0.7861,-0.59975 0.58958,-0.44727 0.19652,-0.16264 0.50148,0.13892 0.75222,0.21347 0.25074,0.0745 0.33206,0.51503 0.4981,0.77255 0.16603,0.25752 0.23041,2.46675 0.1728,1.8704 0.0576,0.51503 0.97586,5.65184 0.7319,4.23888 0.24396,1.33164 0.32528,3.65946 0.48793,5.52986 0.16264,1.87039 0.32528,6.55993 0.48792,9.83989 0.16265,3.27997 -1.19271,11.3579 -0.89453,8.53876 -0.29818,2.73782 -1.84329,8.05083 -2.76493,12.1169 -0.92165,4.06607 -6.23136,17.72479 -4.65914,13.27922 -1.62972,4.50307 -4.15825,13.50469 -3.14744,10.14289 -0.9533,3.3618 -1.62925,5.7503 -2.47262,8.62545 -0.84338,2.87514 -0.46003,5.09859 -0.74754,7.64789 -0.28752,2.5493 -0.26835,4.60024 -0.34502,6.84285 -0.0767,2.24262 1.51424,7.55206 1.15006,5.63529 0.30668,1.91677 5.30944,12.01812 3.9677,9.02797 1.34174,2.93265 4.90692,4.81108 7.41789,7.24537 2.51096,2.4343 6.72305,3.80478 5.07463,2.8464 1.63405,0.98713 0.0527,0.01 0.0863,0 0.0335,-0.01 0.1198,-0.36418 0.0863,-0.27314 0.0479,-0.091 -0.13896,-0.52711 -0.21563,-0.79066 -0.0767,-0.26356 -1.36091,-2.39131 -1.02068,-1.77315 -0.34023,-0.69948 -4.59552,-10.46874 -3.46697,-7.87188 -1.04723,-2.59686 -0.78611,-12.12963 -0.56925,-9.09363 -0.21686,-3.05038 -0.0789,-2.36729 -0.0609,-3.54374 0.0181,-1.17646 2.58763,-12.07563 3.88145,-18.08469 1.29382,-6.00906 4.37023,-10.4272 6.55534,-15.69831 2.18511,-5.2711 3.37351,-8.5296 5.00276,-12.76565 1.62925,-4.23606 1.91866,-5.56765 2.87799,-8.35147 0.95933,-2.78382 2.60229,-10.06333 3.90343,-15.03749 1.30114,-4.97417 1.4977,-15.65064 2.24654,-23.53346 0.74885,-7.88283 -1.00137,-36.49522 -0.77135,-27.37142 -0.14869,-9.1238 -2.39303,-15.48441 -3.71153,-23.22662 -1.3185,-7.74221 -0.0542,-25.04702 0,-37.57052 0.0542,-12.52351 0.759,-9.37908 1.1385,-13.9873 0.3795,-4.60821 5.63829,-16.31851 8.45743,-24.55908 2.81915,-8.24058 1.91106,-3.68658 1.42313,-2.76493 0.52859,-0.92165 0.0678,-0.0407 0.0813,-0.061 0.0136,-0.0203 0.33884,0.2033 0.2643,0.16264 0.0339,0 0.35239,0.57603 0.26429,0.42694 0.0474,0.12876 0.0136,0.27785 0.0407,0.42693 0.0271,0.14909 0.13554,0.56248 0.10165,0.42694 0.0339,0.11521 0.97586,4.03897 0.7319,3.02923 0.24396,0.98941 0.35239,3.58492 0.52859,5.38755 0.17619,1.80262 0.5828,6.55993 0.8742,9.83989 0.2914,3.27997 5.60682,20.46531 4.20512,15.36336 1.4017,5.04445 4.75357,10.17803 7.13036,15.29579 2.37679,5.11777 21.14185,32.31046 15.86655,24.23285 5.23464,8.07761 17.36214,21.06226 13.01144,15.77636 4.3507,5.36722 14.99026,18.27023 22.48539,27.446 7.49513,9.17577 20.8183,30.79702 15.61372,23.1528 5.20458,7.58672 21.25624,41.041 15.94218,30.78075 5.31406,10.20275 5.90364,16.46502 8.85546,24.72628 2.95182,8.26126 1.95532,9.09336 3.0143,13.55872 1.05899,4.46536 1.95172,15.28844 2.76494,23.0953 0.81321,7.80686 -0.48793,11.43922 -0.65058,17.07751 -0.16264,5.63829 -4.06607,14.80051 -6.01779,22.11944 -1.95171,7.31893 -6.99364,14.3668 -10.57179,21.63151 -3.57814,7.26472 -7.26472,8.89115 -10.89707,13.33673 -3.63236,4.44557 -12.68615,10.40914 -19.02923,15.61372 -6.34307,5.20457 -32.99106,13.19954 -24.75048,9.89247 -8.21182,3.33582 -0.40591,0.0957 -0.62325,0.12914 -0.21733,0.0335 -0.0936,0.022 -0.0702,0.0175 -0.0234,6.1e-4 -0.0286,0.0299 -0.0195,0.0234 -0.0169,-10e-4 0,0.008 0.004,0.0156 0.004,0.008 0.0612,0.0573 0.0469,0.043 0.0104,0.0143 0.0221,0.0156 0.0352,0.0234 0.013,0.008 0.0495,0.0208 0.0742,0.0312 0.0247,0.0104 0.11328,0.026 0.0859,0.0195 0.0234,0.007 0.15882,0.026 0.12366,0.0195 0.0131,0.007 2.2021,0 3.3142,0 1.11209,0 9.92717,-1.94513 7.43756,-1.45885 2.52086,-0.48628 42.44215,-11.51841 31.84724,-8.65443 -10.59491,2.86398 3.6875,-1.47917 5.53125,-2.21875 1.84375,-0.73958 13.875,-5.9375 10.40625,-4.4375 3.46875,-1.5625 37.22917,-20.54167 27.9375,-15.40625 9.22917,-5.19792 10.85417,-9.08333 16.375,-13.625 5.52083,-4.54167 18.79167,-18.40089 14.125,-13.83839 4.66667,-4.47411 4.81258,-5.3787 3.60944,-4.02298 1.20314,-1.31153 9.97315,-12.83104 7.46881,-9.63433 2.54853,-3.10832 5.43588,-7.51301 8.13173,-11.3137 2.69584,-3.8007 12.28598,-27.34147 18.42897,-40.92381 6.14299,-13.58234 5.18545,-25.04336 7.77817,-37.65344 2.59273,-12.61007 -0.7513,-35.35533 -0.57452,-26.5165 -0.13258,-8.83883 -3.46188,-18.06069 -5.03814,-27.09103 -1.57625,-9.03034 -14.76085,-32.02604 -22.14128,-48.03907 -7.38042,-16.01302 -14.02428,-15.79205 -21.03642,-23.68807 -7.01215,-7.89603 -8.13173,-5.36223 -12.37437,-8.13173 -4.24264,-2.7695 -12.25652,-4.45067 -9.19239,-3.39001 -3.06413,-1.02941 -0.24833,-0.0567 -0.3725,-0.10069 -0.12417,-0.044 -0.0937,0.19792 -0.0625,0.15625 -0.0625,0.0104 0.0729,0.0312 0.125,0.0625 0.0521,0.0312 0.1875,0.60417 0.15625,0.46875 -0.0312,0.0729 0,0.0625 0.0312,0.125 0.0312,0.0625 1.67266,3.96571 2.50898,5.94857 0.83633,1.98286 6.01041,13.31718 9.01562,19.97577 3.0052,6.65858 5.00867,19.79899 7.51301,29.69848 2.50433,9.89949 0.82495,13.61181 1.06066,20.59448 0.2357,6.98268 -2.47488,12.61008 -3.53554,18.73833 -1.06066,6.12826 -7.42462,16.61701 -10.96015,24.74874 -3.53554,8.13173 -5.65686,8.13173 -8.48529,12.02082 -2.82842,3.88908 -5.539,5.65685 -8.13172,8.48528 -2.59273,2.82842 -3.41769,2.47487 -5.65686,4.24264 -2.23917,1.76777 -1.06066,0.58925 -1.41421,0.70711 -0.35355,0.11785 0,-1.64992 0,-2.47488 0,-0.82496 0.82496,-2.44541 1.19324,-3.62392 0.36829,-1.17851 2.68112,-13.39083 1.98874,-10.03208 0.69238,-3.31456 0.35355,-5.78943 0.53033,-8.70625 0.17678,-2.91681 0.33213,-7.69456 0.49819,-11.54184 0.16606,-3.84728 -2.5,-12.5 -3.75,-18.75 -1.25,-6.25 -6.83333,-12.25 -10.25,-18.25 -3.41667,-6 -14.33333,-15.41667 -21.5,-23.25 -7.16667,-7.83333 -16.75,-19.5 -25.125,-29.25 -8.375,-9.75 -7.95833,-23 -11.875,-34.5 -3.91667,-11.5 3.125,-25.58333 4.375,-38.125 1.25,-12.54167 5.58333,-17.16667 8.625,-26 3.04166,-8.83333 6,-15.33333 9,-23 3,-7.66667 2.83333,-25.33333 4.25,-38 1.41666,-12.66667 -5,-22 -7.5,-33 -2.5,-11 -11,-16.83333 -16.25,-25.25 -5.25,-8.41667 -10.66667,-12.33333 -16.25,-18.5 -5.58334,-6.16667 -20.20833,-13.41667 -30.25,-20.1875 -10.04167,-6.77083 -8.83333,-3.875 -13.3125,-5.75 -4.47917,-1.875 -0.75,-0.125 -1.125,-0.1875 -0.375,-0.0625 -0.10417,0.5 -0.1875,0.6875 -0.0833,0.1875 0.39583,0.54167 0.625,0.875 0.22917,0.33333 1.54167,1.5 2.25,2.25 0.70833,0.75 3.20833,3.625 4.875,5.4375 1.66667,1.8125 10.02083,12.64583 7.5,9.5 2.58333,3.08333 7.6875,13.8125 11.5,20.75 3.8125,6.9375 5.74312,16.5569 4.30734,12.42872 1.43578,4.08398 1.76776,17.14734 1.32582,12.86051 0.44194,4.24264 -5.11179,30.70022 -3.84489,23.02516 -1.22271,7.63086 -10.69499,22.78946 -7.99915,17.05895 -2.74003,5.8189 -9.64906,12.58061 -14.45149,18.82672 -4.80243,6.24611 -4.50462,3.58911 -6.75693,5.38366 z"
       inkscape:path-effect="#path-effect4" />
  </g>
</svg>
