<?xml version="1.0" encoding="UTF-8" standalone="no"?>
<!-- Created with Inkscape (http://www.inkscape.org/) -->

<svg
   version="1.1"
   id="svg1"
   width="256"
   height="256"
   viewBox="0 0 256 256"
   sodipodi:docname="GasBoiler.svg"
   inkscape:export-filename="OilBoiler.svg"
   inkscape:export-xdpi="96"
   inkscape:export-ydpi="96"
   inkscape:version="1.3.2 (091e20e, 2023-11-25, custom)"
   xml:space="preserve"
   xmlns:inkscape="http://www.inkscape.org/namespaces/inkscape"
   xmlns:sodipodi="http://sodipodi.sourceforge.net/DTD/sodipodi-0.dtd"
   xmlns="http://www.w3.org/2000/svg"
   xmlns:svg="http://www.w3.org/2000/svg"><defs
     id="defs1"><inkscape:path-effect
       effect="spiro"
       id="path-effect4"
       is_visible="true"
       lpeversion="1" /><inkscape:path-effect
       effect="spiro"
       id="path-effect4-1"
       is_visible="true"
       lpeversion="1" /><inkscape:path-effect
       effect="spiro"
       id="path-effect4-7"
       is_visible="true"
       lpeversion="1" /></defs><sodipodi:namedview
     id="namedview1"
     pagecolor="#ffffff"
     bordercolor="#000000"
     borderopacity="0.25"
     inkscape:showpageshadow="2"
     inkscape:pageopacity="0.0"
     inkscape:pagecheckerboard="0"
     inkscape:deskcolor="#d1d1d1"
     inkscape:zoom="2.8284271"
     inkscape:cx="67.351921"
     inkscape:cy="173.06438"
     inkscape:window-width="2560"
     inkscape:window-height="1351"
     inkscape:window-x="-9"
     inkscape:window-y="-9"
     inkscape:window-maximized="1"
     inkscape:current-layer="layer1-8" /><g
     id="layer1-8"
     inkscape:label="Flame"
     transform="matrix(-1.0249404,0,0,1.0104995,258.23144,-1.4906643)"><path
       style="display:inline;fill:#7496ff;fill-opacity:1;stroke:none;stroke-width:10;stroke-linecap:round;stroke-linejoin:round;paint-order:stroke markers fill"
       d="M 128.75,1.875 C 122.19027,23.935707 111.26628,44.503377 95.75,63.5 74.527469,87.07392 63.441354,101.71179 60.125,109.5 56.770589,97.657114 57.891186,85.884057 65.100812,74.206017 40.732206,97.785925 37.295465,107.24578 32.75,118 c -26.606003,69.58462 30.072541,133.22085 94.78415,136.19465 44.13351,2.02814 111.4468,-46.80204 96.97225,-122.67279 -5.08175,-26.23046 -18.39162,-49.261147 -39.1939,-67.55311 9.06546,13.902104 12.41669,39.15132 -6.11804,54.35658 C 189.35704,53.702203 151.93261,32.492393 128.75,1.875 Z"
       id="path1-1"
       sodipodi:nodetypes="cccccscccc"
       inkscape:label="Blue" /><path
       style="display:inline;fill:#dfe7ff;fill-opacity:1;stroke:none;stroke-width:10;stroke-linecap:round;stroke-linejoin:round;paint-order:stroke markers fill"
       d="M 128.75116,1.8952679 C 136.48935,32.580626 144.31753,72.770546 92.625,122.5 c -39.350652,38.06931 -43.490803,66.87754 -42.117188,94.24219 12.088902,16.01338 33.437133,35.33183 75.290908,37.68367 30.28952,-0.31842 54.98071,-8.83955 78.59883,-39.94933 C 151.29048,157.0629 161.34097,66.468137 128.75116,1.8952679 Z"
       id="path2-7"
       sodipodi:nodetypes="cccccc"
       inkscape:label="Teal" /><path
       style="display:inline;fill:#ffffff;fill-opacity:1;stroke:none;stroke-width:10;stroke-linecap:round;stroke-linejoin:round;paint-order:stroke markers fill"
       d="m 118.67114,170.81899 c -30.421496,38.69218 -22.285078,70.47394 -20.108297,79.1304 16.218217,5.17542 34.551847,6.28219 54.770297,1.17524 -27.13108,-23.38106 -37.8192,-60.15675 -34.662,-80.30564 z"
       id="path3-9"
       sodipodi:nodetypes="cccc"
       inkscape:label="White" /></g></svg>
