<?xml version="1.0" encoding="UTF-8" standalone="no"?>
<!-- Created with Inkscape (http://www.inkscape.org/) -->

<svg
   width="205.26199"
   height="255.46657"
   viewBox="0 0 205.26199 255.46657"
   version="1.1"
   id="SVGRoot"
   sodipodi:docname="GasBoiler.svg"
   xml:space="preserve"
   inkscape:version="1.3.2 (091e20e, 2023-11-25, custom)"
   inkscape:export-filename="GasMotor.svg"
   inkscape:export-xdpi="96.099998"
   inkscape:export-ydpi="96.099998"
   xmlns:inkscape="http://www.inkscape.org/namespaces/inkscape"
   xmlns:sodipodi="http://sodipodi.sourceforge.net/DTD/sodipodi-0.dtd"
   xmlns="http://www.w3.org/2000/svg"
   xmlns:svg="http://www.w3.org/2000/svg"><sodipodi:namedview
     id="namedview691"
     pagecolor="#ffffff"
     bordercolor="#000000"
     borderopacity="0.25"
     inkscape:showpageshadow="2"
     inkscape:pageopacity="0.0"
     inkscape:pagecheckerboard="0"
     inkscape:deskcolor="#d1d1d1"
     inkscape:document-units="px"
     showgrid="true"
     inkscape:zoom="5.6568544"
     inkscape:cx="133.20124"
     inkscape:cy="226.53933"
     inkscape:window-width="2560"
     inkscape:window-height="1351"
     inkscape:window-x="-9"
     inkscape:window-y="-9"
     inkscape:window-maximized="1"
     inkscape:current-layer="a10"
     showguides="false"><inkscape:grid
       type="xygrid"
       id="grid814"
       originx="-25.355322"
       originy="-0.25303173"
       spacingy="1"
       spacingx="1"
       units="px"
       visible="true" /></sodipodi:namedview><defs
     id="defs686" /><path
     style="opacity:1;fill:#ffffff;fill-opacity:1;stroke:none;stroke-width:35.1718;stroke-linecap:round;stroke-linejoin:round;stroke-opacity:1"
     d="m 101.77418,18.924637 c 0,0 3.48285,14.951015 -6.965712,31.397131 -10.44854,16.446116 -31.461733,41.239881 -41.213709,54.944982 -9.751978,13.70509 -23.799469,35.25948 -24.031658,49.08915 -0.23219,13.8297 -0.69657,29.15449 10.448547,43.23335 11.145116,14.07887 24.728228,26.03969 24.728228,26.03969 0,0 -4.295514,-34.63652 13.699212,-53.44988 17.99472,-18.81336 30.881262,-30.02662 34.828492,-39.2464 3.94723,-9.2198 4.06332,-9.71816 4.06332,-9.71816 0,0 19.85224,29.65284 16.2533,50.58426 -3.59894,20.93142 -11.95779,43.23335 -21.36148,53.20069 0,0 -6.34742,6.15995 -7.98924,8.18624 -1.64184,2.0263 -1.23138,1.49769 -1.23138,1.49769 0,0 37.43375,-17.61994 48.59819,-32.77308 11.16446,-15.15315 20.85126,-30.042 20.76916,-48.54293 -0.082,-18.50095 0.73882,-36.12088 -11.82118,-59.819695 C 147.98826,69.848856 139.61492,55.136206 128.45048,42.978448 117.28603,30.820689 101.77418,18.924637 101.77418,18.924637 Z"
     id="path1" /><rect
     style="opacity:1;fill:none;fill-opacity:1;stroke:#ffffff;stroke-width:19.6535;stroke-linecap:round;stroke-linejoin:round;stroke-dasharray:none;stroke-opacity:1"
     id="rect1"
     width="185.60851"
     height="235.81308"
     x="9.8267498"
     y="9.8267498"
     ry="34.758587" /></svg>
