<?xml version="1.0" encoding="UTF-8" standalone="no"?>
<!-- Created with Inkscape (http://www.inkscape.org/) -->

<svg
   version="1.1"
   id="svg1"
   width="256"
   height="256"
   viewBox="0 0 256 256"
   sodipodi:docname="GasBoiler.svg"
   inkscape:export-filename="OilBoiler.svg"
   inkscape:export-xdpi="96"
   inkscape:export-ydpi="96"
   inkscape:version="1.3.2 (091e20e, 2023-11-25, custom)"
   xml:space="preserve"
   xmlns:inkscape="http://www.inkscape.org/namespaces/inkscape"
   xmlns:sodipodi="http://sodipodi.sourceforge.net/DTD/sodipodi-0.dtd"
   xmlns="http://www.w3.org/2000/svg"
   xmlns:svg="http://www.w3.org/2000/svg"><defs
     id="defs1"><inkscape:path-effect
       effect="spiro"
       id="path-effect4"
       is_visible="true"
       lpeversion="1" /><inkscape:path-effect
       effect="spiro"
       id="path-effect4-1"
       is_visible="true"
       lpeversion="1" /></defs><sodipodi:namedview
     id="namedview1"
     pagecolor="#ffffff"
     bordercolor="#000000"
     borderopacity="0.25"
     inkscape:showpageshadow="2"
     inkscape:pageopacity="0.0"
     inkscape:pagecheckerboard="0"
     inkscape:deskcolor="#d1d1d1"
     inkscape:zoom="1"
     inkscape:cx="-230.49999"
     inkscape:cy="272.49999"
     inkscape:window-width="2560"
     inkscape:window-height="1351"
     inkscape:window-x="-9"
     inkscape:window-y="-9"
     inkscape:window-maximized="1"
     inkscape:current-layer="layer1" /><g
     inkscape:groupmode="layer"
     id="layer1"
     inkscape:label="Flame"><path
       style="display:inline;fill:#7496ff;fill-opacity:1;stroke:none;stroke-width:10;stroke-linecap:round;stroke-linejoin:round;paint-order:stroke markers fill"
       d="M 128.75,1.875 C 122.19027,23.935707 116.56958,48.922794 101.0533,67.919417 79.83077,91.493337 63.441354,101.71179 60.125,109.5 61.800114,98.704743 59.720216,88.097236 65.602476,77.091622 49.524936,86.395986 37.932829,107.37507 32.75,118 6.143997,187.58462 62.821777,251.23752 127.53415,254.19465 171.91691,256.22279 237.13163,210.56939 219.94574,134.69864 209.80251,88.096701 160.25844,39.077071 128.75,1.875 Z"
       id="path1"
       sodipodi:nodetypes="cccccscc"
       inkscape:label="Blue" /><path
       style="display:inline;fill:#dfe7ff;fill-opacity:1;stroke:none;stroke-width:10;stroke-linecap:round;stroke-linejoin:round;paint-order:stroke markers fill"
       d="m 135.0625,9.40625 c 7.73819,30.685358 9.25503,63.364296 -42.4375,113.09375 -39.350652,38.06931 -43.490803,66.87754 -42.117188,94.24219 12.088902,16.01338 33.437133,35.33183 75.290908,37.68367 30.28952,-0.31842 54.00504,-7.35514 77.62316,-38.46492 C 199.56985,183.39142 180.61546,162.57537 157.59375,144.5 150.95408,118.90336 183.56158,59.870266 135.0625,9.40625 Z"
       id="path2"
       sodipodi:nodetypes="ccccccc"
       inkscape:label="Teal" /><path
       style="display:inline;fill:#ffffff;fill-opacity:1;stroke:none;stroke-width:10;stroke-linecap:round;stroke-linejoin:round;paint-order:stroke markers fill"
       d="m 121.3572,179.42835 c -10.71414,36.10582 -21.883191,51.72965 -20.83376,71.06178 15.79266,4.61892 32.43279,5.37591 52.98502,0.89737 -20.01862,-22.49776 -33.22447,-45.6215 -32.15126,-71.95915 z"
       id="path3"
       sodipodi:nodetypes="cccc"
       inkscape:label="White" /></g></svg>
