<?xml version="1.0" encoding="UTF-8" standalone="no"?>
<!-- Created with Inkscape (http://www.inkscape.org/) -->

<svg
   width="168.34349"
   height="255.41885"
   viewBox="0 0 168.34349 255.41885"
   version="1.1"
   id="SVGRoot"
   xml:space="preserve"
   xmlns="http://www.w3.org/2000/svg"
   xmlns:svg="http://www.w3.org/2000/svg"><defs
     id="defs686" /><path
     style="opacity:1;fill:#ffffff;fill-opacity:1;stroke:none;stroke-width:41.5313;stroke-linecap:round;stroke-linejoin:round;stroke-opacity:1"
     d="m 85.170861,-1.0252838e-8 c 0,0 4.10333,17.694169010252835 -8.20666,37.157754010252837 -12.30999,19.463587 -37.066737,48.806416 -48.556057,65.026076 -11.48932,16.21965 -28.03941146,41.72875 -28.31296646,58.09585 -0.273555,16.36711 -0.820666,34.50363 12.30998546,51.16564 13.130651,16.662 29.133633,30.81734 29.133633,30.81734 0,0 -5.060772,-40.99149 16.13976,-63.25665 21.200535,-22.26516 36.382845,-35.53579 41.033285,-46.44719 4.650439,-10.91141 4.787219,-11.50121 4.787219,-11.50121 0,0 23.38897,35.09343 19.14887,59.86527 -4.24011,24.77184 -14.0881,51.16563 -25.167089,62.96174 0,0 -7.47823,7.29016 -9.41255,9.68823 -1.93433,2.39807 -1.45075,1.77248 -1.45075,1.77248 0,0 44.102669,-20.85277 57.256089,-38.78616 13.15344,-17.93339 24.56597,-35.55399 24.46925,-57.4494 -0.0967,-21.89543 0.87045,-42.74819 -13.92716,-70.795187 C 139.61811,60.267597 129.75304,42.855528 116.59962,28.467111 103.44619,14.078694 85.170861,-1.0252838e-8 85.170861,-1.0252838e-8 Z"
     id="path1" /></svg>
