<?xml version="1.0" encoding="UTF-8" standalone="no"?>
<!-- Created with Inkscape (http://www.inkscape.org/) -->

<svg
   version="1.1"
   id="svg1"
   width="256"
   height="256"
   viewBox="0 0 256 256"
   sodipodi:docname="GasMotor.svg"
   inkscape:export-filename="OilBoiler.svg"
   inkscape:export-xdpi="96"
   inkscape:export-ydpi="96"
   inkscape:version="1.3.2 (091e20e, 2023-11-25, custom)"
   xml:space="preserve"
   xmlns:inkscape="http://www.inkscape.org/namespaces/inkscape"
   xmlns:sodipodi="http://sodipodi.sourceforge.net/DTD/sodipodi-0.dtd"
   xmlns="http://www.w3.org/2000/svg"
   xmlns:svg="http://www.w3.org/2000/svg"><defs
     id="defs1"><inkscape:path-effect
       effect="spiro"
       id="path-effect4"
       is_visible="true"
       lpeversion="1" /></defs><sodipodi:namedview
     id="namedview1"
     pagecolor="#ffffff"
     bordercolor="#000000"
     borderopacity="0.25"
     inkscape:showpageshadow="2"
     inkscape:pageopacity="0.0"
     inkscape:pagecheckerboard="0"
     inkscape:deskcolor="#d1d1d1"
     inkscape:zoom="2"
     inkscape:cx="130.75"
     inkscape:cy="137.75"
     inkscape:window-width="2560"
     inkscape:window-height="1351"
     inkscape:window-x="-9"
     inkscape:window-y="-9"
     inkscape:window-maximized="1"
     inkscape:current-layer="layer1" /><g
     inkscape:groupmode="layer"
     id="layer1"
     inkscape:label="Flame"><path
       style="display:inline;fill:#fe600d;fill-opacity:1;stroke:none;stroke-width:10;stroke-linecap:round;stroke-linejoin:round;paint-order:stroke markers fill"
       d="m 128.75,1.875 c -6.55973,22.060707 -17.48372,42.628377 -33,61.625 -21.222531,23.57392 -32.308646,38.21179 -35.625,46 l 1.5,-21.625 C 45.54746,97.179364 37.932829,107.37507 32.75,118 6.143997,187.58462 62.822541,251.22085 127.53415,254.19465 171.66766,256.22279 238.98095,207.39261 224.5064,131.52186 219.42465,105.2914 206.11478,82.260713 185.3125,63.96875 188.84819,90.584115 182.34933,111.72682 164.4375,125.5 177.40907,59.248802 153.6151,31.517231 128.75,1.875 Z"
       id="path1"
       sodipodi:nodetypes="cccccscccc"
       inkscape:label="Tan" /><path
       style="display:inline;fill:#ffb103;fill-opacity:1;stroke:none;stroke-width:10;stroke-linecap:round;stroke-linejoin:round;paint-order:stroke markers fill"
       d="m 135.0625,9.40625 c 7.73819,30.685358 9.25503,63.364296 -42.4375,113.09375 -39.350652,38.06931 -43.490803,66.87754 -42.117188,94.24219 12.088902,16.01338 33.437133,35.33183 75.290908,37.68367 30.28952,-0.31842 54.00504,-7.35514 77.62316,-38.46492 C 199.56985,183.39142 180.61546,162.57537 157.59375,144.5 170.33162,117.24532 181.86306,58.901131 135.0625,9.40625 Z"
       id="path2"
       sodipodi:nodetypes="ccccccc"
       inkscape:label="Orange" /><path
       style="display:inline;fill:#ffdd7b;fill-opacity:1;stroke:none;stroke-width:10;stroke-linecap:round;stroke-linejoin:round;paint-order:stroke markers fill"
       d="m 121.3572,179.42835 c -27.25319,32.25953 -23.33707,51.39154 -20.83376,71.06178 15.79266,4.61892 32.43279,5.37591 52.98502,0.89737 3.38103,-31.76012 -11.38032,-54.26814 -32.15126,-71.95915 z"
       id="path3"
       sodipodi:nodetypes="cccc"
       inkscape:label="Red" /></g></svg>
