<?xml version="1.0" encoding="UTF-8" standalone="no"?>
<svg
   width="24"
   height="24"
   fill="none"
   viewBox="0 0 24 24"
   version="1.1"
   id="svg1"
   sodipodi:docname="Maximize.svg"
   inkscape:version="1.3.2 (091e20e, 2023-11-25, custom)"
   xmlns:inkscape="http://www.inkscape.org/namespaces/inkscape"
   xmlns:sodipodi="http://sodipodi.sourceforge.net/DTD/sodipodi-0.dtd"
   xmlns="http://www.w3.org/2000/svg"
   xmlns:svg="http://www.w3.org/2000/svg">
  <defs
     id="defs1" />
  <sodipodi:namedview
     id="namedview1"
     pagecolor="#ffffff"
     bordercolor="#000000"
     borderopacity="0.25"
     inkscape:showpageshadow="2"
     inkscape:pageopacity="0.0"
     inkscape:pagecheckerboard="0"
     inkscape:deskcolor="#d1d1d1"
     inkscape:zoom="47.375"
     inkscape:cx="12"
     inkscape:cy="12"
     inkscape:window-width="2560"
     inkscape:window-height="1351"
     inkscape:window-x="-9"
     inkscape:window-y="-9"
     inkscape:window-maximized="1"
     inkscape:current-layer="svg1" />
  <path
     d="m12.497 3.002 7.555.001.121.014.088.02.104.034.09.04.063.036.063.042.064.05.063.058.094.11.072.11.053.114.035.105.016.065.01.053.01.148v7.504a1 1 0 0 1-1.993.117l-.007-.117v-5.09L6.413 19h5.088a1 1 0 0 1 .993.884L12.5 20a1 1 0 0 1-.884.994l-.116.006L3.94 21l-.096-.01-.077-.015-.077-.022-.07-.026-.09-.042-.089-.053-.091-.07.032.027a1.006 1.006 0 0 1-.166-.166l-.051-.07-.04-.064-.032-.064-.034-.082-.025-.08-.024-.111-.007-.061-.004-.09v-7.503a1 1 0 0 1 1.993-.117l.007.117v5.088L17.583 5.002h-5.086a1 1 0 0 1-.993-.883l-.007-.117a1 1 0 0 1 1-1Z"
     fill="#000000"
     id="path1"
     style="fill:#ffffff;fill-opacity:1" />
</svg>
