<?xml version="1.0" encoding="UTF-8" standalone="no"?>
<svg
   width="24"
   height="24"
   fill="none"
   viewBox="0 0 24 24"
   version="1.1"
   id="svg1"
   sodipodi:docname="Minimize.svg"
   inkscape:version="1.3.2 (091e20e, 2023-11-25, custom)"
   xmlns:inkscape="http://www.inkscape.org/namespaces/inkscape"
   xmlns:sodipodi="http://sodipodi.sourceforge.net/DTD/sodipodi-0.dtd"
   xmlns="http://www.w3.org/2000/svg"
   xmlns:svg="http://www.w3.org/2000/svg">
  <defs
     id="defs1" />
  <sodipodi:namedview
     id="namedview1"
     pagecolor="#ffffff"
     bordercolor="#000000"
     borderopacity="0.25"
     inkscape:showpageshadow="2"
     inkscape:pageopacity="0.0"
     inkscape:pagecheckerboard="0"
     inkscape:deskcolor="#d1d1d1"
     inkscape:zoom="47.375"
     inkscape:cx="12"
     inkscape:cy="12"
     inkscape:window-width="2560"
     inkscape:window-height="1351"
     inkscape:window-x="-9"
     inkscape:window-y="-9"
     inkscape:window-maximized="1"
     inkscape:current-layer="svg1" />
  <path
     d="m 20.825262,11.365098 0.05546,0.09566 0.03527,0.07649 0.03633,0.09771 0.02599,0.09202 0.01407,0.07005 0.01097,0.07428 0.0074,0.08064 0.0027,0.08557 -0.008,0.144222 -0.01944,0.128623 -0.03134,0.117974 -0.03602,0.09886 -0.02523,0.05718 -0.02215,0.04447 -0.07114,0.111466 c -0.272654,0.373904 -0.641444,0.273228 -2.280783,0.284507 L 5.5113441,12.977167 c -1.5695442,0.05273 -1.970903,0.118805 -2.3122962,-0.342811 l -0.044568,-0.07512 -0.032148,-0.06517 -0.028538,-0.07011 -0.02285,-0.06796 -0.024958,-0.09342 -0.018768,-0.100477 -0.011037,-0.113884 0.00265,0.04173 c -0.00682,-0.07801 -0.00695,-0.1568 -3.791e-4,-0.234762 l 0.00968,-0.08553 0.012285,-0.0735 0.016428,-0.06782 0.024675,-0.08194 0.028306,-0.07414 0.044809,-0.09529 0.027831,-0.04799 0.044339,-0.06631 c 0.2529675,-0.340734 0.6246051,-0.265373 2.281304,-0.285215 l 13.0074392,0.04697 c 1.633536,0.03179 2.015286,-0.05561 2.309708,0.34068 z"
     fill="#000000"
     id="path1"
     sodipodi:nodetypes="ccccccccccccccccccccccccccccccccccccccc"
     style="stroke-width:0.854928;fill:#ffffff;fill-opacity:1" />
</svg>
