<?xml version="1.0" encoding="UTF-8" standalone="no"?>
<!-- Created with Inkscape (http://www.inkscape.org/) -->

<svg
   width="67.733337mm"
   height="67.73333mm"
   viewBox="0 0 67.733337 67.733328"
   version="1.1"
   id="svg1"
   xml:space="preserve"
   sodipodi:docname="OilBoiler.svg"
   xmlns:inkscape="http://www.inkscape.org/namespaces/inkscape"
   xmlns:sodipodi="http://sodipodi.sourceforge.net/DTD/sodipodi-0.dtd"
   xmlns="http://www.w3.org/2000/svg"
   xmlns:svg="http://www.w3.org/2000/svg"><sodipodi:namedview
     id="namedview1"
     pagecolor="#ffffff"
     bordercolor="#000000"
     borderopacity="0.25"
     inkscape:showpageshadow="2"
     inkscape:pageopacity="0.0"
     inkscape:pagecheckerboard="0"
     inkscape:deskcolor="#d1d1d1"
     inkscape:document-units="mm" /><defs
     id="defs1" /><g
     id="layer1"
     transform="matrix(0.3606139,0,0,0.40346493,-3.8232482,-26.340154)"><path
       id="rect1"
       style="fill:#6ba8d4;fill-opacity:1;stroke-width:3.45744"
       d="M 165.64877,84.154273 V 209.12131 c 0,11.2303 -9.54455,20.2713 -21.40035,20.2713 H 69.218694 c -11.855795,0 -21.400351,-9.041 -21.400351,-20.2713 V 84.154273 c 0,0 117.830427,0.202343 117.830427,0 z" /><ellipse
       style="fill:#6ba8d4;fill-opacity:1;stroke:none;stroke-width:2.89424;stroke-dasharray:none;stroke-opacity:1"
       id="path3-1"
       cx="105.89771"
       cy="109.11565"
       rx="63.922173"
       ry="24.325565" /><ellipse
       style="fill:#4491c8;fill-opacity:1;stroke-width:4.00334"
       id="path1"
       cx="106.83591"
       cy="85.62162"
       rx="59.055984"
       ry="17.583012" /><ellipse
       style="fill:#8fa2b0;fill-opacity:1;stroke:#6e8799;stroke-width:2;stroke-dasharray:none;stroke-opacity:1"
       id="path2"
       cx="71.828003"
       cy="86.896324"
       rx="8.6245842"
       ry="5.3136053" /><ellipse
       style="fill:#6ba8d4;fill-opacity:1;stroke:none;stroke-width:2.89424;stroke-dasharray:none;stroke-opacity:1"
       id="path3"
       cx="105.81622"
       cy="153.52136"
       rx="63.922173"
       ry="24.325565" /><ellipse
       style="fill:#6ba8d4;fill-opacity:1;stroke:none;stroke-width:2.89424;stroke-dasharray:none;stroke-opacity:1"
       id="path3-3"
       cx="106.6358"
       cy="202.68289"
       rx="63.922173"
       ry="24.325565" /><path
       style="fill:#e6ff6b;fill-opacity:1;stroke:none;stroke-width:4.85148;stroke-linecap:round;stroke-linejoin:round;stroke-opacity:1"
       d="m 105.75655,125.49845 c -5.957977,12.42463 -14.349493,26.84333 -14.349493,26.84333 0,0 -6.125806,9.5102 -5.160783,15.33904 0,0 0.251748,9.42256 5.790147,13.8928 5.5384,4.47023 20.978789,11.26323 31.048609,-3.02399 10.06981,-14.28722 -5.45449,-31.55461 -7.88803,-35.9372 -2.43354,-4.38258 -9.44045,-17.11398 -9.44045,-17.11398 z"
       id="path1-6" /></g></svg>
