<?xml version="1.0" encoding="UTF-8" standalone="no"?>
<!-- Created with Inkscape (http://www.inkscape.org/) -->

<svg
   width="256.0px"
   height="256.0px"
   viewBox="0 0 256.0 256.0"
   version="1.1"
   id="SVGRoot"
   sodipodi:docname="icon.svg"
   xml:space="preserve"
   inkscape:version="1.3.2 (091e20e, 2023-11-25, custom)"
   inkscape:export-filename="tegning.png"
   inkscape:export-xdpi="96.099998"
   inkscape:export-ydpi="96.099998"
   xmlns:inkscape="http://www.inkscape.org/namespaces/inkscape"
   xmlns:sodipodi="http://sodipodi.sourceforge.net/DTD/sodipodi-0.dtd"
   xmlns="http://www.w3.org/2000/svg"
   xmlns:svg="http://www.w3.org/2000/svg"><sodipodi:namedview
     id="namedview691"
     pagecolor="#ffffff"
     bordercolor="#000000"
     borderopacity="0.25"
     inkscape:showpageshadow="2"
     inkscape:pageopacity="0.0"
     inkscape:pagecheckerboard="0"
     inkscape:deskcolor="#d1d1d1"
     inkscape:document-units="px"
     showgrid="true"
     inkscape:zoom="5.6568544"
     inkscape:cx="133.20124"
     inkscape:cy="226.53933"
     inkscape:window-width="2560"
     inkscape:window-height="1351"
     inkscape:window-x="-9"
     inkscape:window-y="-9"
     inkscape:window-maximized="1"
     inkscape:current-layer="a10"
     showguides="false"><inkscape:grid
       type="xygrid"
       id="grid814"
       originx="0"
       originy="0"
       spacingy="1"
       spacingx="1"
       units="px"
       visible="true" /></sodipodi:namedview><defs
     id="defs686"><inkscape:path-effect
       effect="fillet_chamfer"
       id="path-effect11"
       is_visible="true"
       lpeversion="1"
       nodesatellites_param="F,0,0,1,0,6.8786358,0,1 @ F,0,0,1,0,5.9496157,0,1 @ F,0,0,1,0,5.2602552,0,1"
       radius="0"
       unit="px"
       method="auto"
       mode="F"
       chamfer_steps="1"
       flexible="false"
       use_knot_distance="true"
       apply_no_radius="true"
       apply_with_radius="true"
       only_selected="false"
       hide_knots="false" /><inkscape:path-effect
       effect="fillet_chamfer"
       id="path-effect9"
       is_visible="true"
       lpeversion="1"
       nodesatellites_param="F,0,0,1,0,6.8786358,0,1 @ F,0,0,1,0,5.9496157,0,1 @ F,0,0,1,0,5.2602552,0,1"
       radius="0"
       unit="px"
       method="auto"
       mode="F"
       chamfer_steps="1"
       flexible="false"
       use_knot_distance="true"
       apply_no_radius="true"
       apply_with_radius="true"
       only_selected="false"
       hide_knots="false" /><inkscape:path-effect
       effect="fillet_chamfer"
       id="path-effect7"
       is_visible="true"
       lpeversion="1"
       nodesatellites_param="F,0,0,1,0,6.8786358,0,1 @ F,0,0,1,0,5.9496157,0,1 @ F,0,0,1,0,5.2602552,0,1"
       radius="0"
       unit="px"
       method="auto"
       mode="F"
       chamfer_steps="1"
       flexible="false"
       use_knot_distance="true"
       apply_no_radius="true"
       apply_with_radius="true"
       only_selected="false"
       hide_knots="false" /><inkscape:path-effect
       effect="fillet_chamfer"
       id="path-effect5"
       is_visible="true"
       lpeversion="1"
       nodesatellites_param="F,0,0,1,0,6.8786358,0,1 @ F,0,0,1,0,5.9496157,0,1 @ F,0,0,1,0,5.2602552,0,1"
       radius="0"
       unit="px"
       method="auto"
       mode="F"
       chamfer_steps="1"
       flexible="false"
       use_knot_distance="true"
       apply_no_radius="true"
       apply_with_radius="true"
       only_selected="false"
       hide_knots="false" /></defs><g
     inkscape:label="Background"
     inkscape:groupmode="layer"
     id="layer1"
     style="display:inline"><rect
       style="display:inline;fill:#000000;fill-opacity:1;stroke:none;stroke-width:45.7194;stroke-linecap:round;stroke-linejoin:round"
       id="rect1184"
       width="198"
       height="255"
       x="-229"
       y="-255"
       rx="24.550892"
       ry="27.016462"
       transform="scale(-1)" /><rect
       style="display:inline;fill:#db0000;fill-opacity:1;stroke:none;stroke-width:22.8622;stroke-linecap:round;stroke-linejoin:round"
       id="rect2222"
       width="200"
       height="63.126263"
       x="-230"
       y="-126.03195"
       rx="0"
       ry="0"
       transform="scale(-1)" /><rect
       style="display:inline;fill:#ff0d0d;fill-opacity:1;stroke:none;stroke-width:22.8393;stroke-linecap:round;stroke-linejoin:round"
       id="rect2308"
       width="200"
       height="63"
       x="-230"
       y="-188.81142"
       rx="0"
       ry="0"
       transform="scale(-1)" /><path
       id="path6283"
       style="display:inline;fill:#a60000;stroke-width:22.8392;stroke-linecap:round;stroke-linejoin:round;fill-opacity:1"
       d="M 205.20117,256 H 54.801207 C 41.062834,256 30.0027,244.75721 30.0027,230.79198 L 30,193 H 229.997 L 230,230.79198 C 230.00067,244.75721 218.93955,256 205.20117,256 Z"
       sodipodi:nodetypes="sssccss" /><path
       id="rect2319"
       style="display:inline;fill:#ff2d2d;stroke-width:22.8392;stroke-linecap:round;stroke-linejoin:round;fill-opacity:1"
       d="M 205.20117,251.71749 H 54.801207 C 41.062834,251.71749 30.0027,240.4747 30.0027,226.50947 L 30,188.71749 H 229.997 L 230,226.50947 c 6.7e-4,13.96523 -11.06045,25.20802 -24.79883,25.20802 z"
       sodipodi:nodetypes="sssccss" /><path
       id="path2331"
       style="display:inline;fill:#b10000;fill-opacity:1;stroke-width:22.8392;stroke-linecap:round;stroke-linejoin:round"
       d="M 205.20117,0 H 54.801207 C 41.062834,0 30.0027,11.242776 30.0027,25.208018 L 30,63 H 229.997 L 230,25.208018 C 230.00067,11.242776 218.93955,0 205.20117,0 Z"
       sodipodi:nodetypes="sssccss" /></g><g
     inkscape:groupmode="layer"
     id="g6"
     inkscape:label="Arrows"><a
       id="a6"><path
         style="fill:none;fill-opacity:1;stroke:#f69500;stroke-width:13;stroke-linecap:round;stroke-dasharray:none;stroke-opacity:1"
         d="m 130.9408,220.14697 c -0.61318,-22.01479 -23.34309,-38.71176 -2.94443,-69.91749 22.30933,-32.0377 -5.71379,-47.98177 -2.9446,-69.917504"
         id="path5"
         sodipodi:nodetypes="ccc" /><path
         style="fill:#ffc709;fill-opacity:1;stroke-width:2;stroke-dasharray:none"
         d="M 159.48211,80.273932 90.070118,79.926919 A 3.4299458,3.4299458 60.323044 0 1 87.127669,74.763431 L 122.40241,14.541963 a 3.0856179,3.0856179 179.96415 0 1 5.32302,-0.0033 l 35.15116,59.838675 a 3.9141394,3.9141394 119.92755 0 1 -3.39448,5.896624 z"
         id="path6"
         inkscape:path-effect="#path-effect7"
         inkscape:original-d="M 166.36066,80.30832 84.120577,79.897175 125.06108,10.003048 Z"
         transform="translate(1)" /></a></g><g
     inkscape:groupmode="layer"
     id="g8"
     inkscape:label="Arrows copy"
     transform="translate(70.5,17.25)"><a
       id="a8"
       transform="matrix(0.77186096,0.45975351,-0.45537487,0.77928277,78.109466,-23.258366)"><path
         style="fill:none;fill-opacity:1;stroke:#f69500;stroke-width:14.43679905;stroke-linecap:round;stroke-dasharray:none;stroke-opacity:1"
         d="m 131.49857,213.30171 c 1.06441,-21.90965 39.02393,-45.62612 -2.48071,-69.88932 C 102.23107,128.8861 115.8809,103.0656 126.53698,73.523056"
         id="path7"
         sodipodi:nodetypes="ccc" /><path
         style="fill:#fec500;fill-opacity:1;stroke-width:2;stroke-dasharray:none"
         d="M 159.48211,80.273932 90.070118,79.926919 A 3.4299458,3.4299458 60.323044 0 1 87.127669,74.763431 L 122.40241,14.541963 a 3.0856179,3.0856179 179.96415 0 1 5.32302,-0.0033 l 35.15116,59.838675 a 3.9141394,3.9141394 119.92755 0 1 -3.39448,5.896624 z"
         id="path8"
         inkscape:path-effect="#path-effect9"
         inkscape:original-d="M 166.36066,80.30832 84.120577,79.897175 125.06108,10.003048 Z" /></a></g><g
     inkscape:groupmode="layer"
     id="g10"
     inkscape:label="Arrows copy"
     transform="translate(70.5,17.25)"><a
       id="a10"
       transform="matrix(-0.77186096,0.45975351,0.45537487,0.77928277,36.824144,-23.258366)"><path
         style="fill:none;fill-opacity:1;stroke:#f69500;stroke-width:14.4368;stroke-linecap:round;stroke-dasharray:none;stroke-opacity:1"
         d="m 129.87923,214.05573 c -1.36491,-21.95916 36.90446,-42.34564 -3.36799,-69.84512 -40.272226,-27.49955 -2.00288,-47.886006 -3.3678,-69.845198"
         id="path9"
         sodipodi:nodetypes="ccc" /><path
         style="fill:#ffc709;fill-opacity:1;stroke-width:2;stroke-dasharray:none"
         d="M 159.48211,80.273932 90.070118,79.926919 A 3.4299458,3.4299458 60.323044 0 1 87.127669,74.763431 L 122.40241,14.541963 a 3.0856179,3.0856179 179.96415 0 1 5.32302,-0.0033 l 35.15116,59.838675 a 3.9141394,3.9141394 119.92755 0 1 -3.39448,5.896624 z"
         id="path10"
         inkscape:path-effect="#path-effect11"
         inkscape:original-d="M 166.36066,80.30832 84.120577,79.897175 125.06108,10.003048 Z" /><path
         id="rect11"
         style="fill:#c00000;stroke-width:18.3372;stroke-linecap:round"
         transform="matrix(-0.86128054,0.50812974,0.50812974,0.86128054,0,0)"
         d="m -37.495838,242.60548 h 131.58802 c 5.265124,0 9.503838,4.23871 9.503838,9.50384 v 4.89276 c 0,5.26512 -4.238714,9.50383 -9.503838,9.50383 h -131.58802 c -5.265124,0 -9.503834,-4.23871 -9.503834,-9.50383 v -4.89276 c 0,-5.26513 4.23871,-9.50384 9.503834,-9.50384 z" /></a></g></svg>
